<mxfile host="app.diagrams.net" modified="2023-05-23T01:11:30.260Z" agent="Mozilla/5.0 (Windows NT 10.0; Win64; x64) AppleWebKit/537.36 (KHTML, like Gecko) Chrome/113.0.0.0 Safari/537.36" etag="0GwT_yN5-GS9zi_rumk4" version="21.2.9" type="github">
  <diagram id="R2lEEEUBdFMjLlhIrx00" name="Page-1">
    <mxGraphModel dx="2208" dy="1669" grid="1" gridSize="10" guides="1" tooltips="1" connect="1" arrows="1" fold="1" page="1" pageScale="1" pageWidth="850" pageHeight="1100" math="0" shadow="0" extFonts="Permanent Marker^https://fonts.googleapis.com/css?family=Permanent+Marker">
      <root>
        <mxCell id="0" />
        <mxCell id="1" parent="0" />
        <mxCell id="5j6wSST8VfNC3EcutYvZ-1" value="PELAPOR" style="rounded=0;whiteSpace=wrap;html=1;" parent="1" vertex="1">
          <mxGeometry x="10" y="212" width="120" height="60" as="geometry" />
        </mxCell>
        <mxCell id="5j6wSST8VfNC3EcutYvZ-2" value="PENGADUAN" style="rounded=0;whiteSpace=wrap;html=1;" parent="1" vertex="1">
          <mxGeometry x="360" y="216" width="120" height="60" as="geometry" />
        </mxCell>
        <mxCell id="5j6wSST8VfNC3EcutYvZ-3" value="JENIS ADUAN" style="rounded=0;whiteSpace=wrap;html=1;" parent="1" vertex="1">
          <mxGeometry x="360" y="-40" width="120" height="60" as="geometry" />
        </mxCell>
        <mxCell id="5j6wSST8VfNC3EcutYvZ-5" value="BUKTI DUKUNG" style="rounded=0;whiteSpace=wrap;html=1;" parent="1" vertex="1">
          <mxGeometry x="865" y="-30" width="120" height="60" as="geometry" />
        </mxCell>
        <mxCell id="5j6wSST8VfNC3EcutYvZ-6" value="ROLE" style="rounded=0;whiteSpace=wrap;html=1;" parent="1" vertex="1">
          <mxGeometry x="1240" y="222" width="120" height="60" as="geometry" />
        </mxCell>
        <mxCell id="5j6wSST8VfNC3EcutYvZ-7" value="&lt;font style=&quot;font-size: 8px;&quot;&gt;MEMILIKI&lt;/font&gt;" style="rhombus;whiteSpace=wrap;html=1;" parent="1" vertex="1">
          <mxGeometry x="632.5" y="-30" width="105" height="60" as="geometry" />
        </mxCell>
        <mxCell id="5j6wSST8VfNC3EcutYvZ-8" value="&lt;font style=&quot;font-size: 8px;&quot;&gt;MEMVERIFIKASI DAN &lt;br&gt;TINDAK LANJUT&lt;/font&gt;" style="rhombus;whiteSpace=wrap;html=1;" parent="1" vertex="1">
          <mxGeometry x="632.5" y="216" width="127.5" height="72" as="geometry" />
        </mxCell>
        <mxCell id="5j6wSST8VfNC3EcutYvZ-9" value="&lt;font style=&quot;font-size: 8px;&quot;&gt;MENGINPUTKAN&lt;/font&gt;" style="rhombus;whiteSpace=wrap;html=1;" parent="1" vertex="1">
          <mxGeometry x="200" y="216" width="90" height="60" as="geometry" />
        </mxCell>
        <mxCell id="5j6wSST8VfNC3EcutYvZ-10" value="&lt;font style=&quot;font-size: 8px;&quot;&gt;MEMILIKI&lt;/font&gt;" style="rhombus;whiteSpace=wrap;html=1;" parent="1" vertex="1">
          <mxGeometry x="360" y="80" width="120" height="50" as="geometry" />
        </mxCell>
        <mxCell id="5j6wSST8VfNC3EcutYvZ-11" value="&lt;font style=&quot;font-size: 8px;&quot;&gt;MEMILIKI&lt;/font&gt;" style="rhombus;whiteSpace=wrap;html=1;" parent="1" vertex="1">
          <mxGeometry x="1070" y="226" width="100" height="52" as="geometry" />
        </mxCell>
        <mxCell id="5j6wSST8VfNC3EcutYvZ-12" value="&lt;font style=&quot;font-size: 8px;&quot;&gt;MENAMBAHKAN&lt;/font&gt;" style="rhombus;whiteSpace=wrap;html=1;" parent="1" vertex="1">
          <mxGeometry x="872.5" y="86" width="105" height="60" as="geometry" />
        </mxCell>
        <mxCell id="5j6wSST8VfNC3EcutYvZ-13" value="id" style="ellipse;whiteSpace=wrap;html=1;" parent="1" vertex="1">
          <mxGeometry x="90" y="146" width="60" height="20" as="geometry" />
        </mxCell>
        <mxCell id="5j6wSST8VfNC3EcutYvZ-14" value="nama" style="ellipse;whiteSpace=wrap;html=1;" parent="1" vertex="1">
          <mxGeometry x="10" y="142" width="60" height="20" as="geometry" />
        </mxCell>
        <mxCell id="5j6wSST8VfNC3EcutYvZ-16" value="" style="endArrow=none;html=1;rounded=0;entryX=0.5;entryY=1;entryDx=0;entryDy=0;exitX=0.5;exitY=0;exitDx=0;exitDy=0;" parent="1" edge="1">
          <mxGeometry width="50" height="50" relative="1" as="geometry">
            <mxPoint x="70" y="216" as="sourcePoint" />
            <mxPoint x="40" y="166" as="targetPoint" />
          </mxGeometry>
        </mxCell>
        <mxCell id="5j6wSST8VfNC3EcutYvZ-17" value="" style="endArrow=none;html=1;rounded=0;entryX=0.5;entryY=1;entryDx=0;entryDy=0;exitX=0.5;exitY=0;exitDx=0;exitDy=0;" parent="1" target="5j6wSST8VfNC3EcutYvZ-13" edge="1">
          <mxGeometry width="50" height="50" relative="1" as="geometry">
            <mxPoint x="70" y="216" as="sourcePoint" />
            <mxPoint x="50" y="176" as="targetPoint" />
          </mxGeometry>
        </mxCell>
        <mxCell id="5j6wSST8VfNC3EcutYvZ-18" value="" style="endArrow=none;html=1;rounded=0;exitX=1;exitY=0.5;exitDx=0;exitDy=0;entryX=0;entryY=0.5;entryDx=0;entryDy=0;" parent="1" target="5j6wSST8VfNC3EcutYvZ-9" edge="1">
          <mxGeometry width="50" height="50" relative="1" as="geometry">
            <mxPoint x="130" y="246" as="sourcePoint" />
            <mxPoint x="180" y="246" as="targetPoint" />
          </mxGeometry>
        </mxCell>
        <mxCell id="5j6wSST8VfNC3EcutYvZ-19" value="" style="endArrow=none;html=1;rounded=0;exitX=1;exitY=0.5;exitDx=0;exitDy=0;entryX=0;entryY=0.5;entryDx=0;entryDy=0;" parent="1" edge="1">
          <mxGeometry width="50" height="50" relative="1" as="geometry">
            <mxPoint x="290" y="245.5" as="sourcePoint" />
            <mxPoint x="360" y="245.5" as="targetPoint" />
          </mxGeometry>
        </mxCell>
        <mxCell id="5j6wSST8VfNC3EcutYvZ-20" value="jenis_aduan" style="ellipse;whiteSpace=wrap;html=1;" parent="1" vertex="1">
          <mxGeometry x="240" y="336" width="90" height="20" as="geometry" />
        </mxCell>
        <mxCell id="5j6wSST8VfNC3EcutYvZ-21" value="id" style="ellipse;whiteSpace=wrap;html=1;" parent="1" vertex="1">
          <mxGeometry x="220" y="316" width="60" height="20" as="geometry" />
        </mxCell>
        <mxCell id="5j6wSST8VfNC3EcutYvZ-22" value="pelapor_id" style="ellipse;whiteSpace=wrap;html=1;" parent="1" vertex="1">
          <mxGeometry x="285" y="356" width="75" height="20" as="geometry" />
        </mxCell>
        <mxCell id="5j6wSST8VfNC3EcutYvZ-25" value="pihak_terlapor" style="ellipse;whiteSpace=wrap;html=1;" parent="1" vertex="1">
          <mxGeometry x="310" y="376" width="100" height="20" as="geometry" />
        </mxCell>
        <mxCell id="5j6wSST8VfNC3EcutYvZ-29" value="tgl_aduan" style="ellipse;whiteSpace=wrap;html=1;" parent="1" vertex="1">
          <mxGeometry x="380" y="394" width="80" height="20" as="geometry" />
        </mxCell>
        <mxCell id="5j6wSST8VfNC3EcutYvZ-34" value="tempat" style="ellipse;whiteSpace=wrap;html=1;" parent="1" vertex="1">
          <mxGeometry x="435" y="376" width="75" height="20" as="geometry" />
        </mxCell>
        <mxCell id="5j6wSST8VfNC3EcutYvZ-36" value="ket" style="ellipse;whiteSpace=wrap;html=1;" parent="1" vertex="1">
          <mxGeometry x="460" y="356" width="75" height="20" as="geometry" />
        </mxCell>
        <mxCell id="5j6wSST8VfNC3EcutYvZ-37" value="admin_id" style="ellipse;whiteSpace=wrap;html=1;" parent="1" vertex="1">
          <mxGeometry x="540" y="296" width="75" height="20" as="geometry" />
        </mxCell>
        <mxCell id="5j6wSST8VfNC3EcutYvZ-38" value="tindak_lanjut" style="ellipse;whiteSpace=wrap;html=1;" parent="1" vertex="1">
          <mxGeometry x="510" y="316" width="90" height="20" as="geometry" />
        </mxCell>
        <mxCell id="5j6wSST8VfNC3EcutYvZ-39" value="status" style="ellipse;whiteSpace=wrap;html=1;" parent="1" vertex="1">
          <mxGeometry x="490" y="336" width="75" height="20" as="geometry" />
        </mxCell>
        <mxCell id="5j6wSST8VfNC3EcutYvZ-42" value="judul" style="ellipse;whiteSpace=wrap;html=1;" parent="1" vertex="1">
          <mxGeometry x="420" y="-120" width="75" height="20" as="geometry" />
        </mxCell>
        <mxCell id="5j6wSST8VfNC3EcutYvZ-43" value="id" style="ellipse;whiteSpace=wrap;html=1;" parent="1" vertex="1">
          <mxGeometry x="340" y="-120" width="60" height="20" as="geometry" />
        </mxCell>
        <mxCell id="5j6wSST8VfNC3EcutYvZ-46" value="" style="endArrow=none;html=1;rounded=0;entryX=0.5;entryY=0;entryDx=0;entryDy=0;exitX=0.5;exitY=1;exitDx=0;exitDy=0;" parent="1" source="5j6wSST8VfNC3EcutYvZ-43" target="5j6wSST8VfNC3EcutYvZ-3" edge="1">
          <mxGeometry width="50" height="50" relative="1" as="geometry">
            <mxPoint x="380" y="140" as="sourcePoint" />
            <mxPoint x="430" y="90" as="targetPoint" />
          </mxGeometry>
        </mxCell>
        <mxCell id="5j6wSST8VfNC3EcutYvZ-47" value="" style="endArrow=none;html=1;rounded=0;exitX=0.5;exitY=1;exitDx=0;exitDy=0;" parent="1" source="5j6wSST8VfNC3EcutYvZ-42" edge="1">
          <mxGeometry width="50" height="50" relative="1" as="geometry">
            <mxPoint x="440" y="-90" as="sourcePoint" />
            <mxPoint x="420" y="-40" as="targetPoint" />
          </mxGeometry>
        </mxCell>
        <mxCell id="5j6wSST8VfNC3EcutYvZ-48" value="id" style="ellipse;whiteSpace=wrap;html=1;" parent="1" vertex="1">
          <mxGeometry x="795" y="-120" width="75" height="20" as="geometry" />
        </mxCell>
        <mxCell id="5j6wSST8VfNC3EcutYvZ-50" value="pengaduan_id" style="ellipse;whiteSpace=wrap;html=1;" parent="1" vertex="1">
          <mxGeometry x="815" y="-140" width="105" height="20" as="geometry" />
        </mxCell>
        <mxCell id="5j6wSST8VfNC3EcutYvZ-51" value="judul" style="ellipse;whiteSpace=wrap;html=1;" parent="1" vertex="1">
          <mxGeometry x="887.5" y="-160" width="75" height="20" as="geometry" />
        </mxCell>
        <mxCell id="5j6wSST8VfNC3EcutYvZ-53" value="lampiran" style="ellipse;whiteSpace=wrap;html=1;" parent="1" vertex="1">
          <mxGeometry x="945" y="-140" width="75" height="20" as="geometry" />
        </mxCell>
        <mxCell id="5j6wSST8VfNC3EcutYvZ-54" value="jenis" style="ellipse;whiteSpace=wrap;html=1;" parent="1" vertex="1">
          <mxGeometry x="985" y="-120" width="75" height="20" as="geometry" />
        </mxCell>
        <mxCell id="5j6wSST8VfNC3EcutYvZ-55" value="" style="endArrow=none;html=1;rounded=0;entryX=0.5;entryY=1;entryDx=0;entryDy=0;exitX=0.5;exitY=0;exitDx=0;exitDy=0;" parent="1" source="5j6wSST8VfNC3EcutYvZ-5" target="5j6wSST8VfNC3EcutYvZ-54" edge="1">
          <mxGeometry width="50" height="50" relative="1" as="geometry">
            <mxPoint x="925" y="-40" as="sourcePoint" />
            <mxPoint x="975" y="-90" as="targetPoint" />
          </mxGeometry>
        </mxCell>
        <mxCell id="5j6wSST8VfNC3EcutYvZ-56" value="" style="endArrow=none;html=1;rounded=0;entryX=0.427;entryY=1.083;entryDx=0;entryDy=0;exitX=0.5;exitY=0;exitDx=0;exitDy=0;entryPerimeter=0;" parent="1" source="5j6wSST8VfNC3EcutYvZ-5" target="5j6wSST8VfNC3EcutYvZ-53" edge="1">
          <mxGeometry width="50" height="50" relative="1" as="geometry">
            <mxPoint x="935" y="-30" as="sourcePoint" />
            <mxPoint x="1033" y="-90" as="targetPoint" />
          </mxGeometry>
        </mxCell>
        <mxCell id="5j6wSST8VfNC3EcutYvZ-57" value="" style="endArrow=none;html=1;rounded=0;entryX=0.5;entryY=1;entryDx=0;entryDy=0;exitX=0.5;exitY=0;exitDx=0;exitDy=0;" parent="1" source="5j6wSST8VfNC3EcutYvZ-5" target="5j6wSST8VfNC3EcutYvZ-51" edge="1">
          <mxGeometry width="50" height="50" relative="1" as="geometry">
            <mxPoint x="945" y="-20" as="sourcePoint" />
            <mxPoint x="1043" y="-80" as="targetPoint" />
          </mxGeometry>
        </mxCell>
        <mxCell id="5j6wSST8VfNC3EcutYvZ-58" value="" style="endArrow=none;html=1;rounded=0;entryX=0.5;entryY=1;entryDx=0;entryDy=0;exitX=0.5;exitY=0;exitDx=0;exitDy=0;" parent="1" source="5j6wSST8VfNC3EcutYvZ-5" target="5j6wSST8VfNC3EcutYvZ-50" edge="1">
          <mxGeometry width="50" height="50" relative="1" as="geometry">
            <mxPoint x="955" y="-10" as="sourcePoint" />
            <mxPoint x="1053" y="-70" as="targetPoint" />
          </mxGeometry>
        </mxCell>
        <mxCell id="5j6wSST8VfNC3EcutYvZ-59" value="" style="endArrow=none;html=1;rounded=0;entryX=0.5;entryY=1;entryDx=0;entryDy=0;exitX=0.5;exitY=0;exitDx=0;exitDy=0;" parent="1" source="5j6wSST8VfNC3EcutYvZ-5" target="5j6wSST8VfNC3EcutYvZ-48" edge="1">
          <mxGeometry width="50" height="50" relative="1" as="geometry">
            <mxPoint x="965" as="sourcePoint" />
            <mxPoint x="1063" y="-60" as="targetPoint" />
          </mxGeometry>
        </mxCell>
        <mxCell id="5j6wSST8VfNC3EcutYvZ-61" value="pengaduan_id" style="ellipse;whiteSpace=wrap;html=1;" parent="1" vertex="1">
          <mxGeometry x="831" y="374" width="89" height="20" as="geometry" />
        </mxCell>
        <mxCell id="5j6wSST8VfNC3EcutYvZ-62" value="id" style="ellipse;whiteSpace=wrap;html=1;" parent="1" vertex="1">
          <mxGeometry x="801.5" y="348" width="75" height="20" as="geometry" />
        </mxCell>
        <mxCell id="5j6wSST8VfNC3EcutYvZ-63" value="jenis" style="ellipse;whiteSpace=wrap;html=1;" parent="1" vertex="1">
          <mxGeometry x="974" y="348" width="75" height="20" as="geometry" />
        </mxCell>
        <mxCell id="5j6wSST8VfNC3EcutYvZ-64" value="lampiran" style="ellipse;whiteSpace=wrap;html=1;" parent="1" vertex="1">
          <mxGeometry x="945" y="376" width="75" height="20" as="geometry" />
        </mxCell>
        <mxCell id="5j6wSST8VfNC3EcutYvZ-65" value="judul" style="ellipse;whiteSpace=wrap;html=1;" parent="1" vertex="1">
          <mxGeometry x="884" y="394" width="75" height="20" as="geometry" />
        </mxCell>
        <mxCell id="5j6wSST8VfNC3EcutYvZ-67" value="id" style="ellipse;whiteSpace=wrap;html=1;" parent="1" vertex="1">
          <mxGeometry x="1210" y="328" width="75" height="20" as="geometry" />
        </mxCell>
        <mxCell id="5j6wSST8VfNC3EcutYvZ-68" value="judul" style="ellipse;whiteSpace=wrap;html=1;" parent="1" vertex="1">
          <mxGeometry x="1310" y="328" width="75" height="20" as="geometry" />
        </mxCell>
        <mxCell id="5j6wSST8VfNC3EcutYvZ-70" value="" style="endArrow=none;html=1;rounded=0;entryX=0.5;entryY=1;entryDx=0;entryDy=0;" parent="1" source="5j6wSST8VfNC3EcutYvZ-2" target="5j6wSST8VfNC3EcutYvZ-10" edge="1">
          <mxGeometry width="50" height="50" relative="1" as="geometry">
            <mxPoint x="420" y="195.28932188134524" as="sourcePoint" />
            <mxPoint x="420" y="145.28932188134524" as="targetPoint" />
          </mxGeometry>
        </mxCell>
        <mxCell id="5j6wSST8VfNC3EcutYvZ-71" value="" style="endArrow=none;html=1;rounded=0;entryX=0.5;entryY=1;entryDx=0;entryDy=0;exitX=0.5;exitY=0;exitDx=0;exitDy=0;" parent="1" source="5j6wSST8VfNC3EcutYvZ-10" edge="1">
          <mxGeometry width="50" height="50" relative="1" as="geometry">
            <mxPoint x="418.82" y="76" as="sourcePoint" />
            <mxPoint x="418.82" y="20" as="targetPoint" />
          </mxGeometry>
        </mxCell>
        <mxCell id="5j6wSST8VfNC3EcutYvZ-72" value="" style="endArrow=none;html=1;rounded=0;entryX=0;entryY=0.5;entryDx=0;entryDy=0;" parent="1" target="5j6wSST8VfNC3EcutYvZ-7" edge="1">
          <mxGeometry width="50" height="50" relative="1" as="geometry">
            <mxPoint x="480" as="sourcePoint" />
            <mxPoint x="580" as="targetPoint" />
          </mxGeometry>
        </mxCell>
        <mxCell id="5j6wSST8VfNC3EcutYvZ-73" value="" style="endArrow=none;html=1;rounded=0;entryX=0;entryY=0.5;entryDx=0;entryDy=0;" parent="1" target="5j6wSST8VfNC3EcutYvZ-8" edge="1">
          <mxGeometry width="50" height="50" relative="1" as="geometry">
            <mxPoint x="480" y="250" as="sourcePoint" />
            <mxPoint x="530" y="200" as="targetPoint" />
          </mxGeometry>
        </mxCell>
        <mxCell id="5j6wSST8VfNC3EcutYvZ-74" value="" style="endArrow=none;html=1;rounded=0;entryX=0;entryY=0.5;entryDx=0;entryDy=0;exitX=1;exitY=0.5;exitDx=0;exitDy=0;" parent="1" source="5j6wSST8VfNC3EcutYvZ-8" target="5j6wSST8VfNC3EcutYvZ-4" edge="1">
          <mxGeometry width="50" height="50" relative="1" as="geometry">
            <mxPoint x="763" y="251" as="sourcePoint" />
            <mxPoint x="850" y="250" as="targetPoint" />
          </mxGeometry>
        </mxCell>
        <mxCell id="5j6wSST8VfNC3EcutYvZ-75" value="" style="endArrow=none;html=1;rounded=0;entryX=0;entryY=0.5;entryDx=0;entryDy=0;exitX=1;exitY=0.5;exitDx=0;exitDy=0;" parent="1" source="5j6wSST8VfNC3EcutYvZ-4" target="5j6wSST8VfNC3EcutYvZ-11" edge="1">
          <mxGeometry width="50" height="50" relative="1" as="geometry">
            <mxPoint x="978" y="251.41" as="sourcePoint" />
            <mxPoint x="1080" y="251.41" as="targetPoint" />
          </mxGeometry>
        </mxCell>
        <mxCell id="5j6wSST8VfNC3EcutYvZ-76" value="" style="endArrow=none;html=1;rounded=0;entryX=0;entryY=0.5;entryDx=0;entryDy=0;exitX=1;exitY=0.5;exitDx=0;exitDy=0;" parent="1" target="5j6wSST8VfNC3EcutYvZ-4" edge="1">
          <mxGeometry width="50" height="50" relative="1" as="geometry">
            <mxPoint x="978" y="251.41" as="sourcePoint" />
            <mxPoint x="1080" y="251.41" as="targetPoint" />
          </mxGeometry>
        </mxCell>
        <mxCell id="5j6wSST8VfNC3EcutYvZ-4" value="ADMIN" style="rounded=0;whiteSpace=wrap;html=1;" parent="1" vertex="1">
          <mxGeometry x="861.5" y="222" width="120" height="60" as="geometry" />
        </mxCell>
        <mxCell id="5j6wSST8VfNC3EcutYvZ-77" value="" style="endArrow=none;html=1;rounded=0;entryX=0;entryY=0.5;entryDx=0;entryDy=0;" parent="1" target="5j6wSST8VfNC3EcutYvZ-6" edge="1">
          <mxGeometry width="50" height="50" relative="1" as="geometry">
            <mxPoint x="1170" y="250" as="sourcePoint" />
            <mxPoint x="1220" y="200" as="targetPoint" />
          </mxGeometry>
        </mxCell>
        <mxCell id="5j6wSST8VfNC3EcutYvZ-82" value="" style="endArrow=none;html=1;rounded=0;exitX=1;exitY=0;exitDx=0;exitDy=0;entryX=0.5;entryY=1;entryDx=0;entryDy=0;" parent="1" source="5j6wSST8VfNC3EcutYvZ-21" target="5j6wSST8VfNC3EcutYvZ-2" edge="1">
          <mxGeometry width="50" height="50" relative="1" as="geometry">
            <mxPoint x="380" y="320" as="sourcePoint" />
            <mxPoint x="410" y="290" as="targetPoint" />
          </mxGeometry>
        </mxCell>
        <mxCell id="5j6wSST8VfNC3EcutYvZ-83" value="" style="endArrow=none;html=1;rounded=0;entryX=0.5;entryY=1;entryDx=0;entryDy=0;exitX=1;exitY=0;exitDx=0;exitDy=0;" parent="1" source="5j6wSST8VfNC3EcutYvZ-20" target="5j6wSST8VfNC3EcutYvZ-2" edge="1">
          <mxGeometry width="50" height="50" relative="1" as="geometry">
            <mxPoint x="350" y="320" as="sourcePoint" />
            <mxPoint x="410" y="300" as="targetPoint" />
          </mxGeometry>
        </mxCell>
        <mxCell id="5j6wSST8VfNC3EcutYvZ-84" value="" style="endArrow=none;html=1;rounded=0;exitX=1;exitY=0;exitDx=0;exitDy=0;entryX=0.5;entryY=1;entryDx=0;entryDy=0;" parent="1" source="5j6wSST8VfNC3EcutYvZ-22" target="5j6wSST8VfNC3EcutYvZ-2" edge="1">
          <mxGeometry width="50" height="50" relative="1" as="geometry">
            <mxPoint x="390" y="360" as="sourcePoint" />
            <mxPoint x="410" y="280" as="targetPoint" />
          </mxGeometry>
        </mxCell>
        <mxCell id="5j6wSST8VfNC3EcutYvZ-85" value="" style="endArrow=none;html=1;rounded=0;exitX=0.619;exitY=0.015;exitDx=0;exitDy=0;exitPerimeter=0;entryX=0.5;entryY=1;entryDx=0;entryDy=0;" parent="1" source="5j6wSST8VfNC3EcutYvZ-25" target="5j6wSST8VfNC3EcutYvZ-2" edge="1">
          <mxGeometry width="50" height="50" relative="1" as="geometry">
            <mxPoint x="390" y="363" as="sourcePoint" />
            <mxPoint x="410" y="280" as="targetPoint" />
          </mxGeometry>
        </mxCell>
        <mxCell id="5j6wSST8VfNC3EcutYvZ-86" value="" style="endArrow=none;html=1;rounded=0;exitX=0.5;exitY=0;exitDx=0;exitDy=0;entryX=0.5;entryY=1;entryDx=0;entryDy=0;" parent="1" source="5j6wSST8VfNC3EcutYvZ-29" target="5j6wSST8VfNC3EcutYvZ-2" edge="1">
          <mxGeometry width="50" height="50" relative="1" as="geometry">
            <mxPoint x="420" y="368" as="sourcePoint" />
            <mxPoint x="470" y="318" as="targetPoint" />
          </mxGeometry>
        </mxCell>
        <mxCell id="5j6wSST8VfNC3EcutYvZ-87" value="" style="endArrow=none;html=1;rounded=0;exitX=0.299;exitY=0.083;exitDx=0;exitDy=0;exitPerimeter=0;" parent="1" source="5j6wSST8VfNC3EcutYvZ-34" edge="1">
          <mxGeometry width="50" height="50" relative="1" as="geometry">
            <mxPoint x="430" y="360" as="sourcePoint" />
            <mxPoint x="420" y="280" as="targetPoint" />
          </mxGeometry>
        </mxCell>
        <mxCell id="5j6wSST8VfNC3EcutYvZ-88" value="" style="endArrow=none;html=1;rounded=0;exitX=0.284;exitY=-0.056;exitDx=0;exitDy=0;exitPerimeter=0;" parent="1" source="5j6wSST8VfNC3EcutYvZ-36" edge="1">
          <mxGeometry width="50" height="50" relative="1" as="geometry">
            <mxPoint x="450" y="340" as="sourcePoint" />
            <mxPoint x="420" y="280" as="targetPoint" />
          </mxGeometry>
        </mxCell>
        <mxCell id="5j6wSST8VfNC3EcutYvZ-89" value="" style="endArrow=none;html=1;rounded=0;entryX=0.5;entryY=1;entryDx=0;entryDy=0;exitX=0.233;exitY=0.028;exitDx=0;exitDy=0;exitPerimeter=0;" parent="1" source="5j6wSST8VfNC3EcutYvZ-39" target="5j6wSST8VfNC3EcutYvZ-2" edge="1">
          <mxGeometry width="50" height="50" relative="1" as="geometry">
            <mxPoint x="490" y="320" as="sourcePoint" />
            <mxPoint x="540" y="270" as="targetPoint" />
          </mxGeometry>
        </mxCell>
        <mxCell id="5j6wSST8VfNC3EcutYvZ-90" value="" style="endArrow=none;html=1;rounded=0;entryX=0.5;entryY=1;entryDx=0;entryDy=0;exitX=0;exitY=0;exitDx=0;exitDy=0;" parent="1" source="5j6wSST8VfNC3EcutYvZ-38" target="5j6wSST8VfNC3EcutYvZ-2" edge="1">
          <mxGeometry width="50" height="50" relative="1" as="geometry">
            <mxPoint x="500" y="310" as="sourcePoint" />
            <mxPoint x="550" y="260" as="targetPoint" />
          </mxGeometry>
        </mxCell>
        <mxCell id="5j6wSST8VfNC3EcutYvZ-91" value="" style="endArrow=none;html=1;rounded=0;entryX=0.5;entryY=1;entryDx=0;entryDy=0;exitX=0;exitY=0.5;exitDx=0;exitDy=0;" parent="1" source="5j6wSST8VfNC3EcutYvZ-37" target="5j6wSST8VfNC3EcutYvZ-2" edge="1">
          <mxGeometry width="50" height="50" relative="1" as="geometry">
            <mxPoint x="500" y="300" as="sourcePoint" />
            <mxPoint x="550" y="250" as="targetPoint" />
          </mxGeometry>
        </mxCell>
        <mxCell id="5j6wSST8VfNC3EcutYvZ-92" value="" style="endArrow=none;html=1;rounded=0;entryX=0.5;entryY=1;entryDx=0;entryDy=0;" parent="1" source="5j6wSST8VfNC3EcutYvZ-62" target="5j6wSST8VfNC3EcutYvZ-4" edge="1">
          <mxGeometry width="50" height="50" relative="1" as="geometry">
            <mxPoint x="840" y="350" as="sourcePoint" />
            <mxPoint x="890" y="300" as="targetPoint" />
          </mxGeometry>
        </mxCell>
        <mxCell id="5j6wSST8VfNC3EcutYvZ-93" value="" style="endArrow=none;html=1;rounded=0;entryX=0.5;entryY=1;entryDx=0;entryDy=0;exitX=0.5;exitY=0;exitDx=0;exitDy=0;" parent="1" source="5j6wSST8VfNC3EcutYvZ-61" target="5j6wSST8VfNC3EcutYvZ-4" edge="1">
          <mxGeometry width="50" height="50" relative="1" as="geometry">
            <mxPoint x="920" y="360" as="sourcePoint" />
            <mxPoint x="970" y="310" as="targetPoint" />
          </mxGeometry>
        </mxCell>
        <mxCell id="5j6wSST8VfNC3EcutYvZ-94" value="" style="endArrow=none;html=1;rounded=0;entryX=0.5;entryY=1;entryDx=0;entryDy=0;" parent="1" source="5j6wSST8VfNC3EcutYvZ-65" target="5j6wSST8VfNC3EcutYvZ-4" edge="1">
          <mxGeometry width="50" height="50" relative="1" as="geometry">
            <mxPoint x="930" y="360" as="sourcePoint" />
            <mxPoint x="980" y="310" as="targetPoint" />
          </mxGeometry>
        </mxCell>
        <mxCell id="5j6wSST8VfNC3EcutYvZ-95" value="" style="endArrow=none;html=1;rounded=0;entryX=0.5;entryY=1;entryDx=0;entryDy=0;exitX=0.403;exitY=-0.083;exitDx=0;exitDy=0;exitPerimeter=0;" parent="1" source="5j6wSST8VfNC3EcutYvZ-64" target="5j6wSST8VfNC3EcutYvZ-4" edge="1">
          <mxGeometry width="50" height="50" relative="1" as="geometry">
            <mxPoint x="960" y="340" as="sourcePoint" />
            <mxPoint x="1010" y="290" as="targetPoint" />
          </mxGeometry>
        </mxCell>
        <mxCell id="5j6wSST8VfNC3EcutYvZ-96" value="" style="endArrow=none;html=1;rounded=0;entryX=0.5;entryY=1;entryDx=0;entryDy=0;exitX=0.5;exitY=0;exitDx=0;exitDy=0;" parent="1" source="5j6wSST8VfNC3EcutYvZ-63" target="5j6wSST8VfNC3EcutYvZ-4" edge="1">
          <mxGeometry width="50" height="50" relative="1" as="geometry">
            <mxPoint x="1010" y="320" as="sourcePoint" />
            <mxPoint x="1060" y="270" as="targetPoint" />
          </mxGeometry>
        </mxCell>
        <mxCell id="5j6wSST8VfNC3EcutYvZ-97" value="" style="endArrow=none;html=1;rounded=0;entryX=0.5;entryY=1;entryDx=0;entryDy=0;exitX=0.5;exitY=0;exitDx=0;exitDy=0;" parent="1" source="5j6wSST8VfNC3EcutYvZ-67" target="5j6wSST8VfNC3EcutYvZ-6" edge="1">
          <mxGeometry width="50" height="50" relative="1" as="geometry">
            <mxPoint x="1260" y="320" as="sourcePoint" />
            <mxPoint x="1310" y="270" as="targetPoint" />
          </mxGeometry>
        </mxCell>
        <mxCell id="5j6wSST8VfNC3EcutYvZ-98" value="" style="endArrow=none;html=1;rounded=0;entryX=0.5;entryY=1;entryDx=0;entryDy=0;exitX=0.5;exitY=0;exitDx=0;exitDy=0;" parent="1" source="5j6wSST8VfNC3EcutYvZ-68" target="5j6wSST8VfNC3EcutYvZ-6" edge="1">
          <mxGeometry width="50" height="50" relative="1" as="geometry">
            <mxPoint x="1300" y="320" as="sourcePoint" />
            <mxPoint x="1350" y="270" as="targetPoint" />
          </mxGeometry>
        </mxCell>
        <mxCell id="5j6wSST8VfNC3EcutYvZ-99" value="" style="endArrow=none;html=1;rounded=0;exitX=1;exitY=0.5;exitDx=0;exitDy=0;entryX=0;entryY=0.5;entryDx=0;entryDy=0;" parent="1" source="5j6wSST8VfNC3EcutYvZ-7" target="5j6wSST8VfNC3EcutYvZ-5" edge="1">
          <mxGeometry width="50" height="50" relative="1" as="geometry">
            <mxPoint x="670" y="30" as="sourcePoint" />
            <mxPoint x="850" y="-10" as="targetPoint" />
          </mxGeometry>
        </mxCell>
        <mxCell id="5j6wSST8VfNC3EcutYvZ-100" value="" style="endArrow=none;html=1;rounded=0;entryX=0.5;entryY=1;entryDx=0;entryDy=0;exitX=0.5;exitY=0;exitDx=0;exitDy=0;" parent="1" source="5j6wSST8VfNC3EcutYvZ-12" target="5j6wSST8VfNC3EcutYvZ-5" edge="1">
          <mxGeometry width="50" height="50" relative="1" as="geometry">
            <mxPoint x="925" y="110" as="sourcePoint" />
            <mxPoint x="970" y="80" as="targetPoint" />
          </mxGeometry>
        </mxCell>
        <mxCell id="5j6wSST8VfNC3EcutYvZ-101" value="" style="endArrow=none;html=1;rounded=0;entryX=0.5;entryY=1;entryDx=0;entryDy=0;exitX=0.5;exitY=0;exitDx=0;exitDy=0;" parent="1" source="5j6wSST8VfNC3EcutYvZ-4" target="5j6wSST8VfNC3EcutYvZ-12" edge="1">
          <mxGeometry width="50" height="50" relative="1" as="geometry">
            <mxPoint x="910" y="250" as="sourcePoint" />
            <mxPoint x="960" y="200" as="targetPoint" />
          </mxGeometry>
        </mxCell>
        <mxCell id="JHTZ7XQZWKItH9QROrEP-1" value="" style="rounded=0;whiteSpace=wrap;html=1;fillColor=none;" parent="1" vertex="1">
          <mxGeometry x="-30" y="-190" width="1440" height="670" as="geometry" />
        </mxCell>
      </root>
    </mxGraphModel>
  </diagram>
</mxfile>
